<svg width="40" height="41" viewBox="0 0 40 41" fill="none" xmlns="http://www.w3.org/2000/svg">
<path d="M9.99992 31.8054C5.85778 31.8054 3.33325 28.4475 3.33325 24.3054C3.33325 20.1632 6.69112 16.8054 10.8333 16.8054H11.6666V15.1387C11.6666 10.5363 15.3975 6.80536 19.9999 6.80536C24.6023 6.80536 28.3333 10.5363 28.3333 15.1387V16.8054H29.1666C33.3087 16.8054 36.6666 20.1632 36.6666 24.3054C36.6666 28.4475 34.1421 31.8054 29.9999 31.8054" stroke="white" stroke-width="2.5" stroke-linecap="round" stroke-linejoin="round"/>
<path d="M15 32.6387V25.9721C15 25.5118 15.3731 25.1387 15.8333 25.1387H24.1667C24.6269 25.1387 25 25.5118 25 25.9721V32.6387C25 33.099 24.6269 33.4721 24.1667 33.4721H15.8333C15.3731 33.4721 15 33.099 15 32.6387Z" stroke="white" stroke-width="2.5" stroke-linecap="round" stroke-linejoin="round"/>
<path d="M16.6665 25.1387V23.4721C16.6665 21.6311 18.1589 20.1387 19.9998 20.1387V20.1387C21.8408 20.1387 23.3332 21.6311 23.3332 23.4721V25.1387" stroke="white" stroke-width="2.5" stroke-linecap="round" stroke-linejoin="round"/>
</svg>
