<svg width="40" height="41" viewBox="0 0 40 41" fill="none" xmlns="http://www.w3.org/2000/svg">
<path d="M33.9182 14.5454C35.1792 17.6832 35.3429 21.1551 34.3827 24.3977C33.4225 27.6403 31.3947 30.4632 28.6285 32.4085C25.8622 34.3538 22.5198 35.3072 19.1435 35.1141C17.7201 35.0327 16.326 34.7496 15 34.2808M23.3334 5.51367C20.2493 4.81068 17.0157 5.09976 14.0979 6.34857C10.989 7.6792 8.42085 10.0214 6.81031 12.995C6.53705 13.4995 6.29408 14.0172 6.08183 14.5454C5.04317 17.1299 4.74046 19.9644 5.22558 22.7301C5.40694 23.764 5.69509 24.7695 6.08183 25.7319" stroke="white" stroke-width="2.5" stroke-linecap="round"/>
<circle cx="26.6668" cy="6.80526" r="3.33333" stroke="white" stroke-width="2.5"/>
<circle cx="11.6668" cy="33.4719" r="3.33333" stroke="white" stroke-width="2.5"/>
<path d="M15.6671 16.8236L19.3959 15.3735C19.7845 15.2224 20.2155 15.2224 20.6041 15.3735L24.3329 16.8236C24.7351 16.98 25 17.3673 25 17.7988V19.3878C25 21.6142 23.9721 23.7159 22.2147 25.0827C20.912 26.0959 19.088 26.0959 17.7853 25.0827C16.0279 23.7159 15 21.6142 15 19.3878V17.7988C15 17.3673 15.2649 16.98 15.6671 16.8236Z" stroke="white" stroke-width="2.5" stroke-linecap="round" stroke-linejoin="round"/>
</svg>
